<svg width="23" height="23" viewBox="0 0 23 23" fill="none" xmlns="http://www.w3.org/2000/svg">
<path d="M11.5 2.15625C6.33982 2.15625 2.15625 6.33982 2.15625 11.5C2.15625 16.6602 6.33982 20.8438 11.5 20.8438C16.6602 20.8438 20.8438 16.6602 20.8438 11.5C20.8438 6.33982 16.6602 2.15625 11.5 2.15625Z" stroke="#C8102E" stroke-width="1.4375" stroke-miterlimit="10"/>
<path d="M11.5 2.15625C8.89139 2.15625 6.43866 6.33982 6.43866 11.5C6.43866 16.6602 8.89139 20.8438 11.5 20.8438C14.1086 20.8438 16.5614 16.6602 16.5614 11.5C16.5614 6.33982 14.1086 2.15625 11.5 2.15625Z" stroke="#C8102E" stroke-width="1.4375" stroke-miterlimit="10"/>
<path d="M5.27069 5.27068C6.9885 6.4903 9.15104 7.21759 11.5 7.21759C13.849 7.21759 16.0115 6.4903 17.7293 5.27068M17.7293 17.7293C16.0115 16.5097 13.849 15.7824 11.5 15.7824C9.15104 15.7824 6.9885 16.5097 5.27069 17.7293" stroke="#C8102E" stroke-width="1.4375" stroke-linecap="round" stroke-linejoin="round"/>
<path d="M11.5 2.15625V20.8438M20.8438 11.5H2.15625" stroke="#C8102E" stroke-width="1.4375" stroke-miterlimit="10"/>
</svg>
