<svg width="17" height="23" viewBox="0 0 17 23" fill="none" xmlns="http://www.w3.org/2000/svg">
<g clip-path="url(#clip0_1_65)">
<path d="M8.5 1.34375C4.61816 1.34375 1.46875 4.34131 1.46875 8.0332C1.46875 12.2812 6.15625 19.0132 7.87744 21.3384C7.94889 21.4365 8.04253 21.5164 8.15072 21.5715C8.25892 21.6265 8.3786 21.6552 8.5 21.6552C8.6214 21.6552 8.74108 21.6265 8.84928 21.5715C8.95747 21.5164 9.05111 21.4365 9.12256 21.3384C10.8438 19.0142 15.5312 12.2847 15.5312 8.0332C15.5312 4.34131 12.3818 1.34375 8.5 1.34375Z" stroke="#C8102E" stroke-width="1.5625" stroke-linecap="round" stroke-linejoin="round"/>
<path d="M8.5 10.7188C9.79442 10.7188 10.8438 9.66942 10.8438 8.375C10.8438 7.08058 9.79442 6.03125 8.5 6.03125C7.20558 6.03125 6.15625 7.08058 6.15625 8.375C6.15625 9.66942 7.20558 10.7188 8.5 10.7188Z" stroke="#C8102E" stroke-width="1.5625" stroke-linecap="round" stroke-linejoin="round"/>
</g>
<defs>
<clipPath id="clip0_1_65">
<rect width="17" height="23" fill="white"/>
</clipPath>
</defs>
</svg>
