<svg width="25" height="25" viewBox="0 0 25 25" fill="none" xmlns="http://www.w3.org/2000/svg">
<path fill-rule="evenodd" clip-rule="evenodd" d="M20.2505 4.74121C19.2393 3.72952 18.038 2.92783 16.7157 2.3823C15.3934 1.83676 13.9763 1.55815 12.5459 1.5625C6.54297 1.5625 1.65625 6.4248 1.65381 12.4023C1.65115 14.3057 2.15288 16.1758 3.10791 17.8223L1.5625 23.4375L7.33643 21.9302C8.93468 22.796 10.7238 23.2492 12.5415 23.2485H12.5459C18.5483 23.2485 23.4346 18.3857 23.4375 12.4087C23.4411 10.9832 23.1612 9.57118 22.6141 8.25485C22.067 6.93852 21.2635 5.74414 20.2505 4.74121ZM12.5459 21.4189H12.542C10.9216 21.4194 9.33062 20.9858 7.93457 20.1631L7.604 19.9678L4.17773 20.8623L5.09229 17.5376L4.87695 17.1958C3.97089 15.7613 3.49084 14.099 3.49268 12.4023C3.49268 7.43505 7.55566 3.39355 12.5493 3.39355C14.9448 3.38927 17.2439 4.33668 18.941 6.0274C20.638 7.71812 21.594 10.0137 21.5986 12.4092C21.5967 17.3769 17.5356 21.4189 12.5459 21.4189ZM17.5112 14.6714C17.2393 14.5356 15.8999 13.8804 15.6519 13.79C15.4038 13.6997 15.2207 13.6543 15.0396 13.9258C14.8584 14.1973 14.3364 14.8047 14.1777 14.9878C14.019 15.1709 13.8604 15.1909 13.5884 15.0552C13.3164 14.9194 12.439 14.6338 11.3994 13.7109C10.5903 12.9927 10.0444 12.106 9.88574 11.835C9.72705 11.564 9.86865 11.417 10.0049 11.2822C10.1274 11.1606 10.2769 10.9658 10.4131 10.8076C10.5493 10.6494 10.5947 10.5361 10.6851 10.3555C10.7754 10.1748 10.7305 10.0166 10.6626 9.88134C10.5947 9.74609 10.0503 8.41259 9.82373 7.87011C9.60254 7.34179 9.37842 7.41357 9.21143 7.40527C9.05273 7.39746 8.86963 7.3955 8.68945 7.3955C8.55171 7.39909 8.41619 7.43103 8.29135 7.48934C8.16651 7.54764 8.05503 7.63105 7.96387 7.73437C7.71436 8.00586 7.01123 8.66211 7.01123 9.99414C7.01123 11.3262 7.98779 12.6152 8.12256 12.7959C8.25732 12.9766 10.0415 15.7124 12.7715 16.8857C13.2784 17.1028 13.7964 17.2932 14.3232 17.4561C14.9751 17.6621 15.5684 17.6333 16.0371 17.5635C16.5601 17.4858 17.6484 16.9082 17.8745 16.2754C18.1006 15.6426 18.1011 15.1006 18.0332 14.9878C17.9653 14.875 17.7837 14.8066 17.5112 14.6714Z" fill="#C8102E"/>
</svg>
